<svg version="1.1" id="Layer_1" xmlns="http://www.w3.org/2000/svg" xmlns:xlink="http://www.w3.org/1999/xlink" x="0px" y="0px"
	 width="100%" viewBox="0 0 1027 257" enable-background="new 0 0 1027 257" xml:space="preserve">
<path fill="none" opacity="1.000000" stroke="none" 
	d="
M751.000000,258.000000 
	C500.666656,258.000000 250.833328,258.000000 1.000000,258.000000 
	C1.000000,172.333328 1.000000,86.666664 1.000000,1.000000 
	C343.333344,1.000000 685.666687,1.000000 1028.000000,1.000000 
	C1028.000000,86.666664 1028.000000,172.333328 1028.000000,258.000000 
	C935.833313,258.000000 843.666687,258.000000 751.000000,258.000000 
M177.331512,141.779968 
	C202.674622,123.799446 237.727417,136.171875 244.358917,165.741592 
	C245.640961,171.458237 244.865433,177.646851 244.948120,183.619003 
	C245.033035,189.752121 248.942764,194.403839 254.638687,194.988495 
	C260.365417,195.576309 266.023102,191.424698 266.888550,185.534348 
	C271.171204,156.385742 257.465820,128.723206 229.949478,117.088249 
	C221.570740,113.545403 212.231415,112.274300 202.839310,109.834770 
	C203.208435,108.209290 203.732986,105.657074 204.369583,103.133125 
	C211.676254,74.163727 199.085754,43.775677 173.263519,30.197372 
	C153.383759,19.743841 132.790024,19.265890 112.231209,28.821047 
	C107.801872,30.879681 104.958122,34.331669 105.159492,39.348480 
	C105.345200,43.975189 107.500877,48.236919 112.143333,49.258507 
	C115.584488,50.015736 119.806702,49.556805 123.108253,48.222488 
	C139.892929,41.439018 155.716568,43.014153 169.612930,54.382069 
	C184.088715,66.223969 186.721710,82.401321 182.480972,99.778702 
	C178.409836,116.460983 161.172180,128.953812 142.837479,129.334732 
	C122.877876,129.749420 107.181938,118.393021 101.156929,99.227859 
	C98.534309,90.885452 98.889709,82.552155 100.542099,74.062477 
	C101.667648,68.279594 97.966881,63.141514 92.614555,61.987228 
	C85.979332,60.556274 80.052383,63.389305 79.153313,69.682182 
	C77.965065,77.999130 76.875214,86.620781 77.781799,94.887886 
	C79.885963,114.075882 89.791397,129.122009 105.217819,140.635864 
	C115.777443,148.517273 122.424149,158.929245 122.877731,172.229126 
	C123.456100,189.188095 116.153152,202.833221 101.975571,211.843628 
	C87.220039,221.221375 71.910744,218.328430 57.344894,210.663101 
	C48.364407,205.937119 43.154690,197.822052 40.080593,188.299286 
	C39.570068,186.717789 39.246563,185.074020 38.702469,183.505585 
	C36.242222,176.413528 30.944170,172.967804 25.224911,174.682449 
	C18.396206,176.729721 15.552333,182.026138 17.419233,189.618820 
	C26.093630,224.897583 57.917725,244.393967 93.429573,238.355499 
	C113.845238,234.883987 128.114120,222.376053 137.796310,204.394150 
	C139.078018,202.013733 140.131821,199.510605 141.580536,196.453766 
	C142.598984,198.504257 143.333557,199.791916 143.898407,201.150146 
	C149.415390,214.415833 158.592194,224.492004 171.064758,231.395126 
	C173.499573,232.742706 177.184982,233.115738 179.887924,232.402008 
	C184.282333,231.241653 187.317612,227.839523 187.670166,223.004913 
	C188.066879,217.564789 184.918839,214.176926 180.605209,211.285629 
	C155.113724,194.199478 153.332794,161.580704 177.331512,141.779968 
M755.698425,210.485397 
	C755.699219,213.314896 755.666199,216.144913 755.708008,218.973801 
	C755.786926,224.316391 757.654358,226.136307 762.957886,226.115677 
	C768.134888,226.095535 770.029053,224.185577 770.049316,218.786758 
	C770.084229,209.500916 770.058960,200.214859 770.058960,190.450516 
	C771.650879,191.162506 772.829834,191.682266 774.002686,192.215515 
	C795.353149,201.922302 816.200989,188.759842 816.210266,165.563370 
	C816.214783,154.245316 815.758179,142.904785 816.318665,131.614563 
	C817.127258,115.326309 805.101685,105.314377 792.892822,103.356552 
	C772.520386,100.089600 754.503113,111.112305 755.453247,133.603668 
	C756.520020,158.857788 755.698303,184.191666 755.698425,210.485397 
M845.617493,73.890862 
	C838.330383,69.726952 833.036194,72.568794 833.029846,80.693047 
	C833.011902,103.681198 833.023071,126.669380 833.023132,149.657547 
	C833.023132,162.484283 833.089539,175.311554 832.984985,188.137436 
	C832.952148,192.160675 834.755798,194.376755 838.569275,195.140289 
	C844.273682,196.282394 847.668884,193.380173 847.681946,187.180756 
	C847.722412,168.024033 847.534058,148.864456 847.851379,129.712906 
	C847.907410,126.331123 849.057495,122.101837 851.286621,119.794250 
	C856.635437,114.257080 863.667053,113.777077 870.733887,116.474289 
	C877.213440,118.947350 879.319641,124.012360 879.246460,130.750473 
	C879.040161,149.738449 879.150818,168.730194 879.192139,187.720337 
	C879.203125,192.769592 881.615295,195.219177 886.361694,195.307144 
	C891.321167,195.399063 893.873840,192.861832 893.883179,187.586670 
	C893.917236,168.263336 894.088013,148.936600 893.752625,129.619019 
	C893.674561,125.124344 892.712280,120.161560 890.580627,116.279701 
	C884.946960,106.020416 871.710693,101.012321 858.899719,103.581253 
	C855.244629,104.314186 851.718384,105.689926 847.696411,106.902550 
	C847.696411,98.060089 847.798706,89.581146 847.627075,81.107750 
	C847.582092,78.885475 846.687134,76.680412 845.617493,73.890862 
M492.979950,170.000748 
	C492.979950,165.067963 492.979950,160.135162 492.979950,154.670929 
	C508.633148,154.670929 523.699280,154.670929 538.890015,154.670929 
	C538.890015,144.812607 539.149902,135.484726 538.746033,126.185684 
	C538.608582,123.020065 537.297241,119.636078 535.667847,116.851944 
	C529.169861,105.749016 516.000854,100.660759 501.731293,103.338554 
	C486.689911,106.161179 478.277893,116.240494 478.224030,131.597794 
	C478.183136,143.261185 477.933807,154.934921 478.352295,166.583405 
	C478.521088,171.282028 479.352966,176.351608 481.391998,180.513000 
	C487.125916,192.214890 501.393799,197.707275 515.749695,194.553040 
	C530.737488,191.259949 538.816162,182.128876 539.028625,168.241409 
	C539.116150,162.519043 536.788208,159.639801 531.973999,159.516022 
	C527.166016,159.392380 524.699829,162.129944 524.456665,167.860458 
	C524.074585,176.865585 519.181519,182.110062 510.421204,182.903946 
	C501.381531,183.723145 495.151367,179.415756 492.979950,170.000748 
M977.397095,195.107040 
	C996.934570,194.227676 1006.936157,183.848282 1006.940247,164.442856 
	C1006.942627,153.110245 1007.272400,141.763107 1006.778198,130.452042 
	C1006.574951,125.800804 1005.487122,120.727974 1003.248169,116.713257 
	C996.853882,105.247406 983.160522,100.475426 968.347412,103.652008 
	C953.948853,106.739708 945.685120,117.209908 946.086182,131.857346 
	C946.234253,137.266510 948.664978,140.065262 953.268494,140.126984 
	C958.089722,140.191650 960.613525,137.342545 960.772339,131.653687 
	C960.809570,130.321442 960.769287,128.982513 960.888733,127.657852 
	C961.535889,120.481773 966.890747,115.937035 975.413269,115.285110 
	C983.134094,114.694519 990.977783,119.057327 991.686340,125.519852 
	C992.484619,132.800995 991.870117,140.237061 991.870117,148.101440 
	C985.205261,143.922729 978.288818,143.510925 971.250366,144.059525 
	C952.588867,145.513992 941.102356,162.369873 948.175354,178.616882 
	C953.425964,190.677719 963.664185,195.380493 977.397095,195.107040 
M724.832214,191.485031 
	C734.423889,186.335205 738.879028,178.154846 738.914673,167.432861 
	C738.955566,155.111450 739.204468,142.780045 738.776306,130.473389 
	C738.619690,125.972252 737.693787,121.022842 735.544312,117.152336 
	C728.163940,103.862724 709.086182,98.689262 694.239197,105.517426 
	C684.782288,109.866684 678.541504,117.014442 678.228699,127.741020 
	C677.821228,141.715073 677.850159,155.716934 678.212891,169.693298 
	C678.476135,179.837952 683.628235,187.329727 692.776306,191.852615 
	C703.212952,197.012665 713.703918,195.938980 724.832214,191.485031 
M650.986084,136.182846 
	C655.418152,141.545837 665.187317,138.263550 664.544617,133.064362 
	C663.863525,127.555122 663.429138,121.580544 660.951721,116.815353 
	C655.126465,105.610664 641.254822,100.596375 627.093567,103.336853 
	C612.489990,106.162941 603.376282,116.690079 603.877380,130.153671 
	C604.355591,143.003159 614.559448,153.021072 628.949219,154.914551 
	C632.732605,155.412415 636.529175,156.027939 640.217163,156.984436 
	C646.376221,158.581741 649.536987,162.390030 649.955322,168.116409 
	C650.387817,174.036514 647.269348,179.364594 641.708374,181.691833 
	C632.533997,185.531265 617.286560,182.501694 618.110474,166.737076 
	C618.153870,165.907928 618.194702,165.048248 618.032593,164.243927 
	C617.219727,160.209930 614.277283,158.966751 610.649475,159.058334 
	C607.214661,159.145065 604.096436,160.459763 603.953308,164.323959 
	C603.801147,168.430023 603.800110,172.776581 604.950928,176.656952 
	C611.259827,197.929977 642.635803,201.179276 656.982361,187.074890 
	C664.186768,179.992035 666.170288,171.349869 663.286255,161.845291 
	C660.092102,151.318695 652.004333,146.231720 641.751038,144.053360 
	C636.877258,143.017883 631.866760,142.512985 627.089783,141.161377 
	C620.142700,139.195786 616.880920,132.912125 618.636536,125.915848 
	C620.395569,118.906044 627.572205,114.450722 635.690796,115.328384 
	C644.661804,116.298195 649.617126,121.068916 650.017029,129.061111 
	C650.124390,131.206085 650.367065,133.344269 650.986084,136.182846 
M368.350342,118.920639 
	C374.585205,113.558739 381.537292,113.021393 388.855011,116.150940 
	C395.939270,119.180611 396.507629,125.370438 396.456116,132.036484 
	C396.314514,150.355637 396.393372,168.676636 396.414856,186.996857 
	C396.421661,192.817078 398.695435,195.210266 403.976715,195.117752 
	C408.958893,195.030487 411.000641,192.716644 411.004364,187.050400 
	C411.016510,168.563599 410.470032,150.056564 411.163055,131.595779 
	C411.832916,113.752457 399.645477,104.099373 385.957153,102.358673 
	C368.240723,100.105713 349.070862,108.714592 350.040314,132.906784 
	C350.760010,150.865112 350.171234,168.875443 350.188416,186.862595 
	C350.194031,192.765945 352.373932,195.151382 357.621094,195.128647 
	C362.787354,195.106262 364.877838,192.710983 364.881348,186.720795 
	C364.892456,167.734344 364.741455,148.745789 365.020081,129.763412 
	C365.070526,126.325523 366.855316,122.913078 368.350342,118.920639 
M453.514069,93.147476 
	C449.897278,93.147476 446.280487,93.147476 442.173218,93.147476 
	C442.173218,88.129990 442.246033,83.670654 442.152344,79.214828 
	C442.061981,74.916412 439.033875,72.006805 434.920319,72.063179 
	C430.816071,72.119415 427.874603,75.036102 427.873596,79.405823 
	C427.866974,108.726173 427.854889,138.046860 427.995880,167.366730 
	C428.040436,176.634552 432.286896,184.010254 439.539154,189.593353 
	C448.328156,196.359589 458.679169,195.559082 468.766418,194.680054 
	C470.462524,194.532227 472.630554,190.798615 473.152832,188.409683 
	C473.840363,185.264862 471.965271,182.506561 468.463623,181.869827 
	C466.032837,181.427795 463.502075,181.437592 461.014771,181.420670 
	C447.630188,181.329575 442.209564,175.973740 442.182648,162.608200 
	C442.148407,145.615341 442.167267,128.622375 442.185791,111.629471 
	C442.187347,110.188644 442.358765,108.748001 442.470978,107.000191 
	C450.483521,107.000191 458.127197,107.080101 465.768188,106.971169 
	C470.600525,106.902283 473.152802,104.326958 473.048767,100.019653 
	C472.951691,96.000488 469.984589,93.252007 465.498138,93.162849 
	C461.834473,93.090034 458.168152,93.147736 453.514069,93.147476 
M567.974792,107.318871 
	C559.537598,112.922058 555.613647,120.621490 555.786438,130.907349 
	C556.102295,149.705765 555.865540,168.513290 555.883667,187.317001 
	C555.889038,192.892624 558.024231,195.145630 563.135071,195.112686 
	C568.161072,195.080261 570.187317,192.824539 570.192017,187.123825 
	C570.207642,168.153717 570.167480,149.183487 570.211426,130.213470 
	C570.232849,120.950912 575.664185,115.321785 584.935120,114.938110 
	C588.755371,114.780006 592.596497,115.065010 596.411255,114.849495 
	C599.863708,114.654442 601.931946,112.600410 602.102417,109.094391 
	C602.275879,105.527992 600.278687,103.154335 596.869507,103.022804 
	C587.252380,102.651764 577.518311,101.959717 567.974792,107.318871 
M912.807617,181.454712 
	C912.807678,183.287964 912.798584,185.121292 912.809448,186.954468 
	C912.844604,192.877838 915.030334,195.358429 920.132019,195.277206 
	C924.984863,195.199936 927.128418,192.748703 927.131470,187.134659 
	C927.145325,161.635696 927.141174,136.136734 927.135925,110.637779 
	C927.134705,104.623962 925.016418,102.067673 920.048523,102.027512 
	C915.064270,101.987221 912.810913,104.598038 912.809448,110.469803 
	C912.803589,133.802185 912.807373,157.134567 912.807617,181.454712 
M331.255981,117.520920 
	C331.252472,114.523178 331.235107,111.525368 331.248718,108.527702 
	C331.267578,104.379456 328.778656,102.549080 325.072845,102.082619 
	C320.023041,101.446991 316.939026,104.272835 316.932800,109.542419 
	C316.902344,135.356552 316.914185,161.170715 316.922180,186.984879 
	C316.923981,192.759140 318.860565,195.008530 323.839417,195.109848 
	C329.125916,195.217407 331.249207,192.910400 331.251831,186.964035 
	C331.261902,164.147644 331.256073,141.331268 331.255981,117.520920 
M75.344353,165.584778 
	C69.560768,169.629166 67.509903,174.606964 69.200569,180.496811 
	C70.509872,185.058090 75.610985,189.015701 80.350723,188.978088 
	C85.367722,188.938293 89.452309,187.037445 91.712433,182.338455 
	C93.983940,177.615784 93.792419,172.947952 90.367149,168.805542 
	C86.522514,164.155945 81.628052,163.137802 75.344353,165.584778 
M190.751785,175.847580 
	C191.062775,183.807297 196.037811,189.177216 202.734131,188.781006 
	C210.397278,188.327621 215.885468,182.074173 214.974442,174.833969 
	C214.244034,169.029266 209.557236,164.698883 203.524445,164.254715 
	C197.240631,163.792068 192.668640,167.709549 190.751785,175.847580 
M150.295975,94.830215 
	C151.406204,93.015907 152.890121,91.327919 153.554398,89.362862 
	C155.324951,84.125206 153.665833,79.292694 149.397644,76.064522 
	C145.296112,72.962402 139.866486,72.780151 135.396561,75.594574 
	C131.229279,78.218445 129.312210,83.029259 130.048370,88.107590 
	C131.106216,95.405045 141.941452,101.508675 150.295975,94.830215 
M909.172668,80.676575 
	C910.229492,87.366173 914.470520,90.969902 920.077026,89.942390 
	C925.278687,88.989052 928.251465,84.115593 926.975952,78.687965 
	C925.944885,74.300430 922.803223,72.436325 918.695312,72.099586 
	C914.219849,71.732727 911.023254,74.551315 909.172668,80.676575 
M321.277100,89.688934 
	C327.648529,90.455269 331.946381,88.121010 332.932007,83.358910 
	C334.002991,78.184669 331.587830,73.963905 326.722137,72.506462 
	C322.678558,71.295258 317.913361,73.245674 316.117188,76.847092 
	C313.756042,81.581146 315.220245,85.707848 321.277100,89.688934 
z"/>
<path fill="#D66C2C" opacity="1.000000" stroke="none" 
	d="
M177.032043,141.977844 
	C153.332794,161.580704 155.113724,194.199478 180.605209,211.285629 
	C184.918839,214.176926 188.066879,217.564789 187.670166,223.004913 
	C187.317612,227.839523 184.282333,231.241653 179.887924,232.402008 
	C177.184982,233.115738 173.499573,232.742706 171.064758,231.395126 
	C158.592194,224.492004 149.415390,214.415833 143.898407,201.150146 
	C143.333557,199.791916 142.598984,198.504257 141.580536,196.453766 
	C140.131821,199.510605 139.078018,202.013733 137.796310,204.394150 
	C128.114120,222.376053 113.845238,234.883987 93.429573,238.355499 
	C57.917725,244.393967 26.093630,224.897583 17.419233,189.618820 
	C15.552333,182.026138 18.396206,176.729721 25.224911,174.682449 
	C30.944170,172.967804 36.242222,176.413528 38.702469,183.505585 
	C39.246563,185.074020 39.570068,186.717789 40.080593,188.299286 
	C43.154690,197.822052 48.364407,205.937119 57.344894,210.663101 
	C71.910744,218.328430 87.220039,221.221375 101.975571,211.843628 
	C116.153152,202.833221 123.456100,189.188095 122.877731,172.229126 
	C122.424149,158.929245 115.777443,148.517273 105.217819,140.635864 
	C89.791397,129.122009 79.885963,114.075882 77.781799,94.887886 
	C76.875214,86.620781 77.965065,77.999130 79.153313,69.682182 
	C80.052383,63.389305 85.979332,60.556274 92.614555,61.987228 
	C97.966881,63.141514 101.667648,68.279594 100.542099,74.062477 
	C98.889709,82.552155 98.534309,90.885452 101.156929,99.227859 
	C107.181938,118.393021 122.877876,129.749420 142.837479,129.334732 
	C161.172180,128.953812 178.409836,116.460983 182.480972,99.778702 
	C186.721710,82.401321 184.088715,66.223969 169.612930,54.382069 
	C155.716568,43.014153 139.892929,41.439018 123.108253,48.222488 
	C119.806702,49.556805 115.584488,50.015736 112.143333,49.258507 
	C107.500877,48.236919 105.345200,43.975189 105.159492,39.348480 
	C104.958122,34.331669 107.801872,30.879681 112.231209,28.821047 
	C132.790024,19.265890 153.383759,19.743841 173.263519,30.197372 
	C199.085754,43.775677 211.676254,74.163727 204.369583,103.133125 
	C203.732986,105.657074 203.208435,108.209290 202.839310,109.834770 
	C212.231415,112.274300 221.570740,113.545403 229.949478,117.088249 
	C257.465820,128.723206 271.171204,156.385742 266.888550,185.534348 
	C266.023102,191.424698 260.365417,195.576309 254.638687,194.988495 
	C248.942764,194.403839 245.033035,189.752121 244.948120,183.619003 
	C244.865433,177.646851 245.640961,171.458237 244.358917,165.741592 
	C237.727417,136.171875 202.674622,123.799446 177.032043,141.977844 
z"/>
<path fill="#D66C2C" opacity="1.000000" stroke="none" 
	d="
M755.698303,209.988129 
	C755.698303,184.191666 756.520020,158.857788 755.453247,133.603668 
	C754.503113,111.112305 772.520386,100.089600 792.892822,103.356552 
	C805.101685,105.314377 817.127258,115.326309 816.318665,131.614563 
	C815.758179,142.904785 816.214783,154.245316 816.210266,165.563370 
	C816.200989,188.759842 795.353149,201.922302 774.002686,192.215515 
	C772.829834,191.682266 771.650879,191.162506 770.058960,190.450516 
	C770.058960,200.214859 770.084229,209.500916 770.049316,218.786758 
	C770.029053,224.185577 768.134888,226.095535 762.957886,226.115677 
	C757.654358,226.136307 755.786926,224.316391 755.708008,218.973801 
	C755.666199,216.144913 755.699219,213.314896 755.698303,209.988129 
M801.893433,130.795288 
	C801.439026,120.423203 795.592590,114.823135 785.416809,115.013069 
	C775.709045,115.194260 770.082886,121.147766 770.060303,131.339569 
	C770.033752,143.333237 770.013000,155.327209 770.067566,167.320694 
	C770.110840,176.832748 776.164307,182.755859 785.746155,182.808502 
	C795.574768,182.862503 801.823059,176.887558 801.877686,167.211624 
	C801.944397,155.384842 801.893799,143.557404 801.893433,130.795288 
z"/>
<path fill="#D66C2C" opacity="1.000000" stroke="none" 
	d="
M845.900024,74.179153 
	C846.687134,76.680412 847.582092,78.885475 847.627075,81.107750 
	C847.798706,89.581146 847.696411,98.060089 847.696411,106.902550 
	C851.718384,105.689926 855.244629,104.314186 858.899719,103.581253 
	C871.710693,101.012321 884.946960,106.020416 890.580627,116.279701 
	C892.712280,120.161560 893.674561,125.124344 893.752625,129.619019 
	C894.088013,148.936600 893.917236,168.263336 893.883179,187.586670 
	C893.873840,192.861832 891.321167,195.399063 886.361694,195.307144 
	C881.615295,195.219177 879.203125,192.769592 879.192139,187.720337 
	C879.150818,168.730194 879.040161,149.738449 879.246460,130.750473 
	C879.319641,124.012360 877.213440,118.947350 870.733887,116.474289 
	C863.667053,113.777077 856.635437,114.257080 851.286621,119.794250 
	C849.057495,122.101837 847.907410,126.331123 847.851379,129.712906 
	C847.534058,148.864456 847.722412,168.024033 847.681946,187.180756 
	C847.668884,193.380173 844.273682,196.282394 838.569275,195.140289 
	C834.755798,194.376755 832.952148,192.160675 832.984985,188.137436 
	C833.089539,175.311554 833.023132,162.484283 833.023132,149.657547 
	C833.023071,126.669380 833.011902,103.681198 833.029846,80.693047 
	C833.036194,72.568794 838.330383,69.726952 845.900024,74.179153 
z"/>
<path fill="#D66C2C" opacity="1.000000" stroke="none" 
	d="
M493.002869,170.438995 
	C495.151367,179.415756 501.381531,183.723145 510.421204,182.903946 
	C519.181519,182.110062 524.074585,176.865585 524.456665,167.860458 
	C524.699829,162.129944 527.166016,159.392380 531.973999,159.516022 
	C536.788208,159.639801 539.116150,162.519043 539.028625,168.241409 
	C538.816162,182.128876 530.737488,191.259949 515.749695,194.553040 
	C501.393799,197.707275 487.125916,192.214890 481.391998,180.513000 
	C479.352966,176.351608 478.521088,171.282028 478.352295,166.583405 
	C477.933807,154.934921 478.183136,143.261185 478.224030,131.597794 
	C478.277893,116.240494 486.689911,106.161179 501.731293,103.338554 
	C516.000854,100.660759 529.169861,105.749016 535.667847,116.851944 
	C537.297241,119.636078 538.608582,123.020065 538.746033,126.185684 
	C539.149902,135.484726 538.890015,144.812607 538.890015,154.670929 
	C523.699280,154.670929 508.633148,154.670929 492.979950,154.670929 
	C492.979950,160.135162 492.979950,165.067963 493.002869,170.438995 
M492.917358,133.559845 
	C492.917358,136.654877 492.917358,139.749908 492.917358,142.786621 
	C503.822540,142.786621 514.035095,142.786621 524.254761,142.786621 
	C524.254761,137.307846 524.487061,132.175476 524.189697,127.073982 
	C523.889893,121.930382 520.721619,118.575600 516.160583,116.538742 
	C503.789886,111.014252 492.974701,118.509079 492.917358,133.559845 
z"/>
<path fill="#D66C2C" opacity="1.000000" stroke="none" 
	d="
M976.925293,195.123138 
	C963.664185,195.380493 953.425964,190.677719 948.175354,178.616882 
	C941.102356,162.369873 952.588867,145.513992 971.250366,144.059525 
	C978.288818,143.510925 985.205261,143.922729 991.870117,148.101440 
	C991.870117,140.237061 992.484619,132.800995 991.686340,125.519852 
	C990.977783,119.057327 983.134094,114.694519 975.413269,115.285110 
	C966.890747,115.937035 961.535889,120.481773 960.888733,127.657852 
	C960.769287,128.982513 960.809570,130.321442 960.772339,131.653687 
	C960.613525,137.342545 958.089722,140.191650 953.268494,140.126984 
	C948.664978,140.065262 946.234253,137.266510 946.086182,131.857346 
	C945.685120,117.209908 953.948853,106.739708 968.347412,103.652008 
	C983.160522,100.475426 996.853882,105.247406 1003.248169,116.713257 
	C1005.487122,120.727974 1006.574951,125.800804 1006.778198,130.452042 
	C1007.272400,141.763107 1006.942627,153.110245 1006.940247,164.442856 
	C1006.936157,183.848282 996.934570,194.227676 976.925293,195.123138 
M963.267029,177.003479 
	C964.353699,178.024368 965.342041,179.182129 966.542664,180.044464 
	C975.916382,186.777054 990.773743,181.660400 992.073181,171.291260 
	C992.867920,164.949738 990.042664,159.645462 984.459656,156.997528 
	C977.729126,153.805328 969.250061,155.022171 964.496765,159.862366 
	C960.186646,164.251236 959.617432,169.892731 963.267029,177.003479 
z"/>
<path fill="#D66C2C" opacity="1.000000" stroke="none" 
	d="
M724.499695,191.665375 
	C713.703918,195.938980 703.212952,197.012665 692.776306,191.852615 
	C683.628235,187.329727 678.476135,179.837952 678.212891,169.693298 
	C677.850159,155.716934 677.821228,141.715073 678.228699,127.741020 
	C678.541504,117.014442 684.782288,109.866684 694.239197,105.517426 
	C709.086182,98.689262 728.163940,103.862724 735.544312,117.152336 
	C737.693787,121.022842 738.619690,125.972252 738.776306,130.473389 
	C739.204468,142.780045 738.955566,155.111450 738.914673,167.432861 
	C738.879028,178.154846 734.423889,186.335205 724.499695,191.665375 
M707.690735,115.249077 
	C695.858093,117.165863 692.753784,120.807755 692.746582,132.810928 
	C692.739868,143.962341 692.725464,155.113815 692.751038,166.265167 
	C692.775879,177.093918 698.452576,183.057388 708.594604,182.975388 
	C718.717407,182.893524 724.191956,176.964737 724.209961,166.016129 
	C724.228088,155.031189 724.217712,144.046173 724.213135,133.061203 
	C724.207947,120.590965 720.933228,116.874672 707.690735,115.249077 
z"/>
<path fill="#D66C2C" opacity="1.000000" stroke="none" 
	d="
M650.766846,135.834213 
	C650.367065,133.344269 650.124390,131.206085 650.017029,129.061111 
	C649.617126,121.068916 644.661804,116.298195 635.690796,115.328384 
	C627.572205,114.450722 620.395569,118.906044 618.636536,125.915848 
	C616.880920,132.912125 620.142700,139.195786 627.089783,141.161377 
	C631.866760,142.512985 636.877258,143.017883 641.751038,144.053360 
	C652.004333,146.231720 660.092102,151.318695 663.286255,161.845291 
	C666.170288,171.349869 664.186768,179.992035 656.982361,187.074890 
	C642.635803,201.179276 611.259827,197.929977 604.950928,176.656952 
	C603.800110,172.776581 603.801147,168.430023 603.953308,164.323959 
	C604.096436,160.459763 607.214661,159.145065 610.649475,159.058334 
	C614.277283,158.966751 617.219727,160.209930 618.032593,164.243927 
	C618.194702,165.048248 618.153870,165.907928 618.110474,166.737076 
	C617.286560,182.501694 632.533997,185.531265 641.708374,181.691833 
	C647.269348,179.364594 650.387817,174.036514 649.955322,168.116409 
	C649.536987,162.390030 646.376221,158.581741 640.217163,156.984436 
	C636.529175,156.027939 632.732605,155.412415 628.949219,154.914551 
	C614.559448,153.021072 604.355591,143.003159 603.877380,130.153671 
	C603.376282,116.690079 612.489990,106.162941 627.093567,103.336853 
	C641.254822,100.596375 655.126465,105.610664 660.951721,116.815353 
	C663.429138,121.580544 663.863525,127.555122 664.544617,133.064362 
	C665.187317,138.263550 655.418152,141.545837 650.766846,135.834213 
z"/>
<path fill="#D66C2C" opacity="1.000000" stroke="none" 
	d="
M368.094910,119.204765 
	C366.855316,122.913078 365.070526,126.325523 365.020081,129.763412 
	C364.741455,148.745789 364.892456,167.734344 364.881348,186.720795 
	C364.877838,192.710983 362.787354,195.106262 357.621094,195.128647 
	C352.373932,195.151382 350.194031,192.765945 350.188416,186.862595 
	C350.171234,168.875443 350.760010,150.865112 350.040314,132.906784 
	C349.070862,108.714592 368.240723,100.105713 385.957153,102.358673 
	C399.645477,104.099373 411.832916,113.752457 411.163055,131.595779 
	C410.470032,150.056564 411.016510,168.563599 411.004364,187.050400 
	C411.000641,192.716644 408.958893,195.030487 403.976715,195.117752 
	C398.695435,195.210266 396.421661,192.817078 396.414856,186.996857 
	C396.393372,168.676636 396.314514,150.355637 396.456116,132.036484 
	C396.507629,125.370438 395.939270,119.180611 388.855011,116.150940 
	C381.537292,113.021393 374.585205,113.558739 368.094910,119.204765 
z"/>
<path fill="#D66C2C" opacity="1.000000" stroke="none" 
	d="
M454.008545,93.147522 
	C458.168152,93.147736 461.834473,93.090034 465.498138,93.162849 
	C469.984589,93.252007 472.951691,96.000488 473.048767,100.019653 
	C473.152802,104.326958 470.600525,106.902283 465.768188,106.971169 
	C458.127197,107.080101 450.483521,107.000191 442.470978,107.000191 
	C442.358765,108.748001 442.187347,110.188644 442.185791,111.629471 
	C442.167267,128.622375 442.148407,145.615341 442.182648,162.608200 
	C442.209564,175.973740 447.630188,181.329575 461.014771,181.420670 
	C463.502075,181.437592 466.032837,181.427795 468.463623,181.869827 
	C471.965271,182.506561 473.840363,185.264862 473.152832,188.409683 
	C472.630554,190.798615 470.462524,194.532227 468.766418,194.680054 
	C458.679169,195.559082 448.328156,196.359589 439.539154,189.593353 
	C432.286896,184.010254 428.040436,176.634552 427.995880,167.366730 
	C427.854889,138.046860 427.866974,108.726173 427.873596,79.405823 
	C427.874603,75.036102 430.816071,72.119415 434.920319,72.063179 
	C439.033875,72.006805 442.061981,74.916412 442.152344,79.214828 
	C442.246033,83.670654 442.173218,88.129990 442.173218,93.147476 
	C446.280487,93.147476 449.897278,93.147476 454.008545,93.147522 
z"/>
<path fill="#D66C2C" opacity="1.000000" stroke="none" 
	d="
M568.296509,107.133133 
	C577.518311,101.959717 587.252380,102.651764 596.869507,103.022804 
	C600.278687,103.154335 602.275879,105.527992 602.102417,109.094391 
	C601.931946,112.600410 599.863708,114.654442 596.411255,114.849495 
	C592.596497,115.065010 588.755371,114.780006 584.935120,114.938110 
	C575.664185,115.321785 570.232849,120.950912 570.211426,130.213470 
	C570.167480,149.183487 570.207642,168.153717 570.192017,187.123825 
	C570.187317,192.824539 568.161072,195.080261 563.135071,195.112686 
	C558.024231,195.145630 555.889038,192.892624 555.883667,187.317001 
	C555.865540,168.513290 556.102295,149.705765 555.786438,130.907349 
	C555.613647,120.621490 559.537598,112.922058 568.296509,107.133133 
z"/>
<path fill="#D66C2C" opacity="1.000000" stroke="none" 
	d="
M912.807617,180.960831 
	C912.807373,157.134567 912.803589,133.802185 912.809448,110.469803 
	C912.810913,104.598038 915.064270,101.987221 920.048523,102.027512 
	C925.016418,102.067673 927.134705,104.623962 927.135925,110.637779 
	C927.141174,136.136734 927.145325,161.635696 927.131470,187.134659 
	C927.128418,192.748703 924.984863,195.199936 920.132019,195.277206 
	C915.030334,195.358429 912.844604,192.877838 912.809448,186.954468 
	C912.798584,185.121292 912.807678,183.287964 912.807617,180.960831 
z"/>
<path fill="#D66C2C" opacity="1.000000" stroke="none" 
	d="
M331.256104,118.017899 
	C331.256073,141.331268 331.261902,164.147644 331.251831,186.964035 
	C331.249207,192.910400 329.125916,195.217407 323.839417,195.109848 
	C318.860565,195.008530 316.923981,192.759140 316.922180,186.984879 
	C316.914185,161.170715 316.902344,135.356552 316.932800,109.542419 
	C316.939026,104.272835 320.023041,101.446991 325.072845,102.082619 
	C328.778656,102.549080 331.267578,104.379456 331.248718,108.527702 
	C331.235107,111.525368 331.252472,114.523178 331.256104,118.017899 
z"/>
<path fill="#D66C2C" opacity="1.000000" stroke="none" 
	d="
M75.686386,165.401962 
	C81.628052,163.137802 86.522514,164.155945 90.367149,168.805542 
	C93.792419,172.947952 93.983940,177.615784 91.712433,182.338455 
	C89.452309,187.037445 85.367722,188.938293 80.350723,188.978088 
	C75.610985,189.015701 70.509872,185.058090 69.200569,180.496811 
	C67.509903,174.606964 69.560768,169.629166 75.686386,165.401962 
z"/>
<path fill="#D66C2C" opacity="1.000000" stroke="none" 
	d="
M190.807205,175.475754 
	C192.668640,167.709549 197.240631,163.792068 203.524445,164.254715 
	C209.557236,164.698883 214.244034,169.029266 214.974442,174.833969 
	C215.885468,182.074173 210.397278,188.327621 202.734131,188.781006 
	C196.037811,189.177216 191.062775,183.807297 190.807205,175.475754 
z"/>
<path fill="#D66C2C" opacity="1.000000" stroke="none" 
	d="
M149.988968,95.056824 
	C141.941452,101.508675 131.106216,95.405045 130.048370,88.107590 
	C129.312210,83.029259 131.229279,78.218445 135.396561,75.594574 
	C139.866486,72.780151 145.296112,72.962402 149.397644,76.064522 
	C153.665833,79.292694 155.324951,84.125206 153.554398,89.362862 
	C152.890121,91.327919 151.406204,93.015907 149.988968,95.056824 
z"/>
<path fill="#D66C2C" opacity="1.000000" stroke="none" 
	d="
M909.241943,80.294037 
	C911.023254,74.551315 914.219849,71.732727 918.695312,72.099586 
	C922.803223,72.436325 925.944885,74.300430 926.975952,78.687965 
	C928.251465,84.115593 925.278687,88.989052 920.077026,89.942390 
	C914.470520,90.969902 910.229492,87.366173 909.241943,80.294037 
z"/>
<path fill="#D66C2C" opacity="1.000000" stroke="none" 
	d="
M320.917053,89.524689 
	C315.220245,85.707848 313.756042,81.581146 316.117188,76.847092 
	C317.913361,73.245674 322.678558,71.295258 326.722137,72.506462 
	C331.587830,73.963905 334.002991,78.184669 332.932007,83.358910 
	C331.946381,88.121010 327.648529,90.455269 320.917053,89.524689 
z"/>
<path fill="none" opacity="1.000000" stroke="none" 
	d="
M801.893677,131.262756 
	C801.893799,143.557404 801.944397,155.384842 801.877686,167.211624 
	C801.823059,176.887558 795.574768,182.862503 785.746155,182.808502 
	C776.164307,182.755859 770.110840,176.832748 770.067566,167.320694 
	C770.013000,155.327209 770.033752,143.333237 770.060303,131.339569 
	C770.082886,121.147766 775.709045,115.194260 785.416809,115.013069 
	C795.592590,114.823135 801.439026,120.423203 801.893677,131.262756 
z"/>
<path fill="none" opacity="1.000000" stroke="none" 
	d="
M492.917358,133.082642 
	C492.974701,118.509079 503.789886,111.014252 516.160583,116.538742 
	C520.721619,118.575600 523.889893,121.930382 524.189697,127.073982 
	C524.487061,132.175476 524.254761,137.307846 524.254761,142.786621 
	C514.035095,142.786621 503.822540,142.786621 492.917358,142.786621 
	C492.917358,139.749908 492.917358,136.654877 492.917358,133.082642 
z"/>
<path fill="none" opacity="1.000000" stroke="none" 
	d="
M963.049194,176.686356 
	C959.617432,169.892731 960.186646,164.251236 964.496765,159.862366 
	C969.250061,155.022171 977.729126,153.805328 984.459656,156.997528 
	C990.042664,159.645462 992.867920,164.949738 992.073181,171.291260 
	C990.773743,181.660400 975.916382,186.777054 966.542664,180.044464 
	C965.342041,179.182129 964.353699,178.024368 963.049194,176.686356 
z"/>
<path fill="none" opacity="1.000000" stroke="none" 
	d="
M708.094604,115.228935 
	C720.933228,116.874672 724.207947,120.590965 724.213135,133.061203 
	C724.217712,144.046173 724.228088,155.031189 724.209961,166.016129 
	C724.191956,176.964737 718.717407,182.893524 708.594604,182.975388 
	C698.452576,183.057388 692.775879,177.093918 692.751038,166.265167 
	C692.725464,155.113815 692.739868,143.962341 692.746582,132.810928 
	C692.753784,120.807755 695.858093,117.165863 708.094604,115.228935 
z"/>
</svg>
